<svg width="22" height="26" viewBox="0 0 22 26" fill="none" xmlns="http://www.w3.org/2000/svg">
<path d="M1.375 6.875V5.775C0.767487 5.775 0.275 6.26749 0.275 6.875H1.375ZM1.375 24.375H0.275C0.275 24.9825 0.767487 25.475 1.375 25.475L1.375 24.375ZM20.625 24.375V25.475C21.2325 25.475 21.725 24.9825 21.725 24.375H20.625ZM20.625 6.875H21.725C21.725 6.26749 21.2325 5.775 20.625 5.775V6.875ZM4.65 6.875C4.65 7.48251 5.14249 7.975 5.75 7.975C6.35751 7.975 6.85 7.48251 6.85 6.875H4.65ZM15.15 6.875V7.975H17.35V6.875H15.15ZM0.275 6.875V24.375H2.475V6.875H0.275ZM1.375 25.475H20.625V23.275H1.375V25.475ZM21.725 24.375V6.875H19.525V24.375H21.725ZM20.625 5.775H1.375V7.975H20.625V5.775ZM5.75 6.875C6.85 6.875 6.85 6.87552 6.85 6.87602C6.85 6.87616 6.85 6.87664 6.85 6.87692C6.85 6.87748 6.85 6.87796 6.84999 6.87837C6.84999 6.87919 6.84999 6.87971 6.84999 6.87992C6.84998 6.88036 6.84999 6.8796 6.85002 6.87768C6.85008 6.87384 6.85025 6.86541 6.85067 6.85269C6.85152 6.82721 6.85339 6.78475 6.85746 6.72779C6.86562 6.61347 6.88249 6.44299 6.91706 6.23553C6.98709 5.81538 7.12509 5.272 7.39012 4.74193C7.653 4.21618 8.03004 3.72388 8.57501 3.36057C9.1131 3.00184 9.87998 2.725 11 2.725V0.525C9.49502 0.525 8.29315 0.904407 7.35467 1.53006C6.42308 2.15112 5.81575 2.97132 5.42238 3.75807C5.03116 4.5405 4.84104 5.30962 4.747 5.87385C4.69954 6.15857 4.67539 6.39824 4.66305 6.57104C4.65686 6.65763 4.65361 6.72797 4.65189 6.77939C4.65103 6.80512 4.65056 6.82617 4.6503 6.8422C4.65017 6.85022 4.6501 6.85699 4.65005 6.86246C4.65003 6.8652 4.65002 6.86762 4.65001 6.86971C4.65001 6.87076 4.65 6.87172 4.65 6.8726C4.65 6.87304 4.65 6.87364 4.65 6.87386C4.65 6.87444 4.65 6.875 5.75 6.875ZM11 2.725C12.12 2.725 12.8869 3.00184 13.425 3.36057C13.97 3.72388 14.347 4.21618 14.6099 4.74193C14.8749 5.272 15.0129 5.81538 15.0829 6.23553C15.1175 6.44299 15.1344 6.61347 15.1425 6.72779C15.1466 6.78475 15.1485 6.82721 15.1493 6.85269C15.1498 6.86541 15.1499 6.87384 15.15 6.87768C15.15 6.8796 15.15 6.88036 15.15 6.87992C15.15 6.87971 15.15 6.87919 15.15 6.87837C15.15 6.87796 15.15 6.87748 15.15 6.87692C15.15 6.87664 15.15 6.87616 15.15 6.87602C15.15 6.87552 15.15 6.875 16.25 6.875C17.35 6.875 17.35 6.87444 17.35 6.87386C17.35 6.87364 17.35 6.87304 17.35 6.8726C17.35 6.87172 17.35 6.87076 17.35 6.86971C17.35 6.86762 17.35 6.8652 17.3499 6.86246C17.3499 6.85699 17.3498 6.85022 17.3497 6.8422C17.3494 6.82617 17.349 6.80512 17.3481 6.77939C17.3464 6.72797 17.3431 6.65763 17.337 6.57104C17.3246 6.39824 17.3005 6.15857 17.253 5.87385C17.159 5.30962 16.9688 4.5405 16.5776 3.75807C16.1842 2.97132 15.5769 2.15112 14.6453 1.53006C13.7069 0.904407 12.505 0.525 11 0.525V2.725Z" fill="white"/>
</svg>
