<svg width="150" height="130" viewBox="0 0 150 130" fill="none" xmlns="http://www.w3.org/2000/svg">
<path d="M10 0H0V10H10V0Z" fill="#EC0000"/>
<path d="M30 0H20V10H30V0Z" fill="black"/>
<path d="M40 0H50V10H40V0Z" fill="black"/>
<path d="M70 0H60V10H70V0Z" fill="black"/>
<path d="M80 0H90V10H80V0Z" fill="black"/>
<path d="M110 0H100V10H110V0Z" fill="black"/>
<path d="M120 0H130V10H120V0Z" fill="black"/>
<path d="M150 0H140V10H150V0Z" fill="black"/>
<path d="M0 20H10V30H0V20Z" fill="black"/>
<path d="M30 20H20V30H30V20Z" fill="black"/>
<path d="M40 20H50V30H40V20Z" fill="black"/>
<path d="M70 20H60V30H70V20Z" fill="black"/>
<path d="M80 20H90V30H80V20Z" fill="black"/>
<path d="M110 20H100V30H110V20Z" fill="black"/>
<path d="M120 20H130V30H120V20Z" fill="black"/>
<path d="M150 20H140V30H150V20Z" fill="black"/>
<path d="M0 40H10V50H0V40Z" fill="black"/>
<path d="M30 40H20V50H30V40Z" fill="black"/>
<path d="M40 40H50V50H40V40Z" fill="black"/>
<path d="M70 40H60V50H70V40Z" fill="black"/>
<path d="M80 40H90V50H80V40Z" fill="black"/>
<path d="M110 40H100V50H110V40Z" fill="black"/>
<path d="M120 40H130V50H120V40Z" fill="black"/>
<path d="M150 40H140V50H150V40Z" fill="black"/>
<path d="M0 60H10V70H0V60Z" fill="black"/>
<path d="M30 60H20V70H30V60Z" fill="black"/>
<path d="M40 60H50V70H40V60Z" fill="black"/>
<path d="M70 60H60V70H70V60Z" fill="black"/>
<path d="M80 60H90V70H80V60Z" fill="black"/>
<path d="M110 60H100V70H110V60Z" fill="black"/>
<path d="M120 60H130V70H120V60Z" fill="black"/>
<path d="M150 60H140V70H150V60Z" fill="black"/>
<path d="M0 80H10V90H0V80Z" fill="black"/>
<path d="M30 80H20V90H30V80Z" fill="black"/>
<path d="M40 80H50V90H40V80Z" fill="black"/>
<path d="M70 80H60V90H70V80Z" fill="black"/>
<path d="M80 80H90V90H80V80Z" fill="black"/>
<path d="M110 80H100V90H110V80Z" fill="black"/>
<path d="M120 80H130V90H120V80Z" fill="black"/>
<path d="M150 80H140V90H150V80Z" fill="black"/>
<path d="M0 100H10V110H0V100Z" fill="black"/>
<path d="M30 100H20V110H30V100Z" fill="black"/>
<path d="M40 100H50V110H40V100Z" fill="black"/>
<path d="M70 100H60V110H70V100Z" fill="black"/>
<path d="M80 100H90V110H80V100Z" fill="black"/>
<path d="M110 100H100V110H110V100Z" fill="black"/>
<path d="M120 100H130V110H120V100Z" fill="black"/>
<path d="M150 100H140V110H150V100Z" fill="black"/>
<path d="M0 120H10V130H0V120Z" fill="black"/>
<path d="M30 120H20V130H30V120Z" fill="black"/>
<path d="M40 120H50V130H40V120Z" fill="black"/>
<path d="M70 120H60V130H70V120Z" fill="black"/>
<path d="M80 120H90V130H80V120Z" fill="black"/>
<path d="M110 120H100V130H110V120Z" fill="black"/>
<path d="M120 120H130V130H120V120Z" fill="black"/>
<path d="M150 120H140V130H150V120Z" fill="#EC0000"/>
</svg>
