<svg width="328" height="20" viewBox="0 0 328 20" fill="none" xmlns="http://www.w3.org/2000/svg">
<g clip-path="url(#clip0_15_6)">
<path d="M0.349893 19.7044L11.3794 0.46087C11.4592 0.323477 11.574 0.209371 11.7121 0.130003C11.8503 0.050635 12.0071 0.00879733 12.1666 0.00869565C19.5255 -0.00289855 27.1438 -0.00289855 35.0217 0.00869565C37.4241 0.0144928 39.6516 0.353625 41.7041 1.02609C45.7363 2.34783 49.9085 6.79131 47.267 11.1217C44.8821 15.0464 41.5146 17.5942 37.1646 18.7652C33.3773 19.7913 29.1527 20.2522 25.1205 20.2348C16.9686 20.2 8.81958 20.2 0.673519 20.2348C0.253679 20.2348 0.145804 20.058 0.349893 19.7044ZM13.225 14.1826C13.0092 14.5536 13.1171 14.742 13.5486 14.7478C19.7587 14.8406 25.4412 14.8203 30.5959 14.687C34.4269 14.5942 37.2725 12.8261 39.1326 9.38261C39.2842 9.09749 39.3217 8.76519 39.2376 8.45218C38.4241 5.51305 34.2695 5.45217 31.8466 5.44348C27.5841 5.42609 23.1991 5.42319 18.6917 5.43478C18.5456 5.43475 18.4021 5.47339 18.2761 5.54675C18.15 5.62011 18.0459 5.72554 17.9744 5.85218L13.225 14.1826Z" fill="#EC0000"/>
<path d="M63.2122 9.13047L53.792 0.478297C53.448 0.165253 53.5121 0.00873077 53.9844 0.00873077L64.7341 3.65758e-05C65.0492 0.000185418 65.3607 0.0642994 65.6495 0.188426C65.9384 0.312553 66.1983 0.494065 66.4134 0.721777L71.0142 5.58264C71.2008 5.77974 71.4165 5.82033 71.6614 5.70439C74.7344 4.17395 77.8628 2.59714 81.0466 0.973949C82.2828 0.347862 83.554 0.0261221 84.8602 0.00873077C88.837 -0.0318489 92.6972 -0.0144564 96.4407 0.0609059C97.123 0.0782972 97.1609 0.240617 96.5544 0.547864L76.7083 10.6522C76.4575 10.7797 76.4284 10.945 76.6208 11.1479C79.7754 14.4638 82.8863 17.4783 85.9535 20.1913C86.006 20.2319 86.0001 20.2522 85.936 20.2522L75.2213 20.2C75.0464 20.2 74.8948 20.1363 74.7665 20.0087L69.641 15.0522C69.4858 14.9022 69.2867 14.8046 69.0717 14.7734C68.8566 14.7422 68.6366 14.7789 68.4427 14.8783L59.4773 19.4696C58.7934 19.8182 58.0349 20 57.2644 20L42.9374 19.9913C42.1852 19.9913 42.1473 19.829 42.8237 19.5044L63.1072 9.84351C63.492 9.65801 63.527 9.42033 63.2122 9.13047Z" fill="#EC0000"/>
<path d="M127.168 14.8956C127.133 14.9004 127.101 14.9153 127.075 14.9385C127.049 14.9617 127.031 14.992 127.022 15.0257C127.014 15.0594 127.015 15.0948 127.027 15.1274C127.039 15.16 127.061 15.1883 127.089 15.2086L133.885 19.8347C134.258 20.0898 134.218 20.2173 133.763 20.2173H124.203C123.894 20.2173 123.614 20.1275 123.363 19.9478L110.173 10.4434C109.765 10.1536 109.814 10.0058 110.322 9.99996C115.92 9.98256 121.281 9.99126 126.407 10.026C128.185 10.0376 129.876 9.7072 131.48 9.03474C131.719 8.93456 131.926 8.77304 132.082 8.56675C132.237 8.36046 132.334 8.11682 132.363 7.86083C132.486 6.66083 131.419 5.87821 130.317 5.87821C123.465 5.86662 116.409 5.86372 109.15 5.86952C109.04 5.86971 108.933 5.89797 108.84 5.95142C108.746 6.00488 108.669 6.08162 108.616 6.17387L100.447 20.0521C100.377 20.1623 100.278 20.2173 100.149 20.2173L92.2861 20.2086C92.2672 20.2096 92.2484 20.2055 92.2317 20.1967C92.215 20.188 92.201 20.1749 92.1911 20.1589C92.1813 20.1428 92.1759 20.1244 92.1757 20.1057C92.1755 20.0869 92.1804 20.0684 92.1899 20.0521C96.3008 12.9623 100.062 6.44343 103.473 0.495607C103.556 0.348317 103.676 0.225549 103.822 0.139954C103.968 0.0543588 104.134 0.00903122 104.304 0.00864895C111.675 -0.00874236 119.786 -0.00874236 128.637 0.00864895C133.422 0.0173446 144.609 1.40865 140.926 9.25213C138.775 13.8347 131.436 14.4869 127.168 14.8956Z" fill="#EC0000"/>
<path d="M175.353 14.5653H153.731C153.422 14.5653 153.189 14.6986 153.032 14.9653L150.548 19.1305C150.151 19.7913 149.565 20.1015 148.79 20.0609C146.498 19.9334 144.3 19.945 142.195 20.0957C141.215 20.1711 140.993 19.8 141.53 18.9827C143.355 16.2232 145.128 13.1884 146.848 9.8783C149.201 5.34787 153.145 1.82613 158.052 0.869609C161.16 0.260913 164.542 -0.0376363 168.198 -0.0260421C176.484 0.00874049 184.864 0.014538 193.336 -0.00865041C193.774 -0.00865041 193.882 0.179753 193.66 0.556565L182.49 19.4522C182.275 19.8174 181.954 20 181.528 20H173.403C172.965 20 172.855 19.8087 173.07 19.4261L175.589 14.9653C175.741 14.6986 175.662 14.5653 175.353 14.5653ZM181.1 5.78265C181.164 5.6841 181.138 5.63483 181.021 5.63483C175.831 5.63483 170.586 5.64932 165.286 5.6783C161.997 5.70439 157.79 6.60004 155.936 9.60004C155.772 9.86671 155.848 10 156.163 10H178.126C178.301 10 178.432 9.92758 178.519 9.78265L181.1 5.78265Z" fill="#EC0000"/>
<path d="M250.697 7.3913H271.986C272.04 7.39068 272.093 7.40407 272.14 7.43013C272.186 7.45619 272.225 7.494 272.253 7.53979C272.28 7.58557 272.295 7.63772 272.296 7.69102C272.297 7.74431 272.284 7.79689 272.257 7.84348L269.52 12.6696C269.494 12.7162 269.456 12.7553 269.41 12.7828C269.364 12.8102 269.311 12.8252 269.257 12.8261H247.128C247.073 12.8255 247.019 12.8397 246.971 12.8672C246.923 12.8948 246.884 12.9346 246.857 12.9826L246.105 14.3304C246.079 14.3764 246.066 14.4282 246.066 14.4807C246.067 14.5333 246.081 14.5849 246.107 14.6304C246.134 14.6759 246.172 14.7139 246.217 14.7406C246.263 14.7672 246.314 14.7817 246.367 14.7826H275.021C275.074 14.7835 275.126 14.798 275.172 14.8247C275.217 14.8513 275.255 14.8893 275.281 14.9348C275.308 14.9804 275.322 15.0319 275.322 15.0845C275.323 15.1371 275.31 15.1888 275.284 15.2348L272.494 20.0609C272.468 20.1076 272.43 20.1466 272.384 20.1741C272.337 20.2015 272.285 20.2165 272.231 20.2174H234.839C234.786 20.2165 234.735 20.202 234.689 20.1753C234.644 20.1487 234.606 20.1107 234.579 20.0652C234.553 20.0196 234.539 19.9681 234.538 19.9155C234.538 19.8629 234.551 19.8112 234.577 19.7652L245.886 0.156522C245.912 0.10984 245.95 0.0708023 245.996 0.0433283C246.042 0.0158543 246.095 0.000910766 246.149 0L282.745 0.00869419C282.798 0.00958237 282.849 0.02407 282.895 0.0507454C282.94 0.0774209 282.978 0.115376 283.005 0.160911C283.031 0.206445 283.045 0.258009 283.046 0.310576C283.046 0.363143 283.033 0.414921 283.007 0.460869L280.269 5.27826C280.243 5.32494 280.205 5.36398 280.159 5.39145C280.113 5.41893 280.061 5.43387 280.007 5.43478L251.239 5.42609C251.177 5.4252 251.117 5.44302 251.065 5.47717C251.014 5.51133 250.974 5.56022 250.951 5.61739L250.408 6.97391C250.39 7.02044 250.383 7.07084 250.388 7.12065C250.394 7.17045 250.412 7.21811 250.44 7.25941C250.469 7.3007 250.507 7.33435 250.552 7.35736C250.597 7.38037 250.647 7.39203 250.697 7.3913Z" fill="#EC0000"/>
<path d="M313.769 14.8C313.705 14.7986 313.643 14.8178 313.59 14.8547C313.538 14.8916 313.499 14.9443 313.48 15.0048C313.46 15.0654 313.461 15.1306 313.481 15.1908C313.502 15.2511 313.542 15.3031 313.594 15.3391L320.189 19.8087C320.597 20.0812 320.554 20.2174 320.058 20.2174H310.682C310.272 20.2172 309.874 20.0894 309.545 19.8522L296.486 10.4435C296.072 10.142 296.121 9.99131 296.634 9.99131C301.923 9.99131 307.323 9.9971 312.833 10.0087C314.434 10.0087 316.113 9.81739 317.574 9.06957C317.911 8.89313 318.179 8.60964 318.336 8.26435C318.493 7.91905 318.529 7.53185 318.44 7.16452C318.35 6.7972 318.14 6.47094 317.842 6.2378C317.544 6.00466 317.175 5.87808 316.796 5.87826L295.637 5.86957C295.276 5.86957 295.005 6.02319 294.824 6.33044L286.646 20.0696C286.587 20.1681 286.503 20.2174 286.392 20.2174L278.503 20.2087C278.485 20.21 278.467 20.2063 278.451 20.198C278.435 20.1897 278.422 20.1772 278.413 20.1618C278.404 20.1464 278.399 20.1288 278.399 20.111C278.4 20.0932 278.405 20.0758 278.415 20.0609L289.69 0.46087C289.865 0.159421 290.127 0.00869565 290.477 0.00869565C298.221 -0.00289855 306.416 -0.00289855 315.064 0.00869565C319.078 0.0173913 327.615 0.973913 327.869 6.03478C328.227 13.2609 319.131 14.9391 313.769 14.8Z" fill="#EC0000"/>
<path d="M225.743 5.66085C219.702 5.62607 214.352 5.64057 209.693 5.70433C205.818 5.74781 204.077 9.89564 202.713 12.7391C202.608 12.9566 202.56 13.1971 202.574 13.438C202.588 13.6789 202.663 13.9123 202.792 14.1165C202.921 14.3207 203.101 14.4889 203.313 14.6054C203.526 14.7219 203.765 14.7828 204.007 14.7826H220.853C221.215 14.7826 221.492 14.629 221.684 14.3217L222.367 13.2261C222.53 12.9594 222.769 12.8261 223.084 12.8261H231.83C232.099 12.8261 232.186 12.9507 232.093 13.2C230.303 17.8203 226.854 20.1449 221.746 20.1739C214.556 20.2145 206.474 20.229 197.5 20.2174C195.016 20.2174 189.61 18.2348 191.701 14.7217C193.479 11.7246 195.255 8.62897 197.027 5.43477C198.995 1.88694 202.599 0.217376 206.553 0.217376C215.987 0.211579 224.982 0.214476 233.536 0.226071C235.005 0.226071 236.352 0.652158 237.455 1.66955C237.723 1.91897 237.9 2.25112 237.955 2.6124C238.011 2.97368 237.942 3.34302 237.761 3.66085L235.889 6.9652C235.726 7.24346 235.484 7.3826 235.163 7.3826L226.373 7.39998C225.97 7.39998 225.842 7.21448 225.988 6.84346L226.198 6.31303C226.367 5.87824 226.215 5.66085 225.743 5.66085Z" fill="#EC0000"/>
</g>
<defs>
<clipPath id="clip0_15_6">
<rect width="328" height="20" fill="white"/>
</clipPath>
</defs>
</svg>
