<svg width="300" height="19" viewBox="0 0 300 19" fill="none" xmlns="http://www.w3.org/2000/svg">
<g clip-path="url(#clip0_57_165)">
<path d="M0.319983 18.7191L10.408 0.437826C10.481 0.307303 10.5859 0.198903 10.7123 0.123503C10.8387 0.0481033 10.982 0.00835746 11.128 0.00826087C17.8587 -0.00275362 24.8266 -0.00275362 32.032 0.00826087C34.2293 0.0137681 36.2666 0.335944 38.144 0.974784C41.832 2.23044 45.648 6.45174 43.232 10.5657C41.0507 14.2941 37.9706 16.7145 33.992 17.827C30.528 18.8017 26.664 19.2396 22.976 19.223C15.52 19.19 8.06665 19.19 0.615982 19.223C0.231982 19.223 0.133316 19.0551 0.319983 18.7191ZM12.096 13.4735C11.8987 13.8259 11.9973 14.0049 12.392 14.0104C18.072 14.0986 23.2693 14.0793 27.984 13.9526C31.488 13.8645 34.0906 12.1848 35.792 8.91348C35.9306 8.64262 35.9649 8.32693 35.888 8.02957C35.144 5.23739 31.344 5.17957 29.128 5.1713C25.2293 5.15478 21.2187 5.15203 17.096 5.16305C16.9624 5.16301 16.8312 5.19972 16.7159 5.26942C16.6006 5.33911 16.5054 5.43926 16.44 5.55957L12.096 13.4735Z" fill="white"/>
<path d="M57.816 8.67393L49.2 0.454364C48.8854 0.156972 48.944 0.00827592 49.376 0.00827592L59.208 1.64369e-05C59.4962 0.000157837 59.7812 0.0610661 60.0453 0.178987C60.3095 0.296907 60.5473 0.469343 60.744 0.68567L64.952 5.30349C65.1227 5.49074 65.32 5.52929 65.544 5.41915C68.3547 3.96523 71.216 2.46726 74.128 0.925233C75.2587 0.33045 76.4214 0.0247977 77.616 0.00827592C81.2534 -0.0302748 84.784 -0.0137519 88.208 0.0578423C88.832 0.074364 88.8667 0.228568 88.312 0.520452L70.16 10.1196C69.9307 10.2407 69.904 10.3977 70.08 10.5905C72.9654 13.7406 75.8107 16.6044 78.616 19.1818C78.664 19.2203 78.6587 19.2396 78.6 19.2396L68.8 19.19C68.64 19.19 68.5013 19.1294 68.384 19.0083L63.696 14.2996C63.5541 14.157 63.372 14.0644 63.1753 14.0347C62.9786 14.0051 62.7774 14.0399 62.6 14.1344L54.4 18.4961C53.7745 18.8273 53.0807 19 52.376 19L39.272 18.9918C38.584 18.9918 38.5494 18.8376 39.168 18.5291L57.72 9.35132C58.072 9.17509 58.104 8.94929 57.816 8.67393Z" fill="white"/>
<path d="M116.312 14.1508C116.28 14.1554 116.251 14.1696 116.227 14.1916C116.203 14.2136 116.186 14.2425 116.179 14.2744C116.171 14.3064 116.173 14.34 116.184 14.371C116.195 14.402 116.214 14.4289 116.24 14.4482L122.456 18.843C122.797 19.0853 122.76 19.2065 122.344 19.2065H113.6C113.317 19.2065 113.061 19.1211 112.832 18.9504L100.768 9.92128C100.395 9.64592 100.44 9.50549 100.904 9.49998C106.024 9.48346 110.928 9.49172 115.616 9.52476C117.243 9.53578 118.789 9.22186 120.256 8.58302C120.474 8.48786 120.664 8.33442 120.806 8.13844C120.948 7.94246 121.037 7.711 121.064 7.46781C121.176 6.32781 120.2 5.58433 119.192 5.58433C112.925 5.57331 106.472 5.57056 99.832 5.57607C99.732 5.57625 99.6341 5.6031 99.5484 5.65388C99.4627 5.70466 99.3922 5.77756 99.344 5.8652L91.872 19.0495C91.808 19.1542 91.7173 19.2065 91.6 19.2065L84.408 19.1982C84.3907 19.1992 84.3736 19.1952 84.3583 19.1869C84.343 19.1786 84.3302 19.1662 84.3212 19.1509C84.3121 19.1357 84.3073 19.1182 84.3071 19.1004C84.3069 19.0826 84.3113 19.065 84.32 19.0495C88.08 12.3142 91.52 6.12129 94.64 0.470851C94.7154 0.330926 94.8256 0.214296 94.9592 0.132981C95.0928 0.0516653 95.2449 0.00860407 95.4 0.00824091C102.141 -0.00828083 109.56 -0.00828083 117.656 0.00824091C122.032 0.0165018 132.264 1.33824 128.896 8.78955C126.928 13.143 120.216 13.7626 116.312 14.1508Z" fill="white"/>
<path d="M160.384 13.8369H140.608C140.325 13.8369 140.112 13.9636 139.968 14.2169L137.696 18.1739C137.333 18.8017 136.797 19.0963 136.088 19.0578C133.992 18.9366 131.981 18.9476 130.056 19.0908C129.16 19.1624 128.957 18.8099 129.448 18.0334C131.117 15.412 132.739 12.5289 134.312 9.38429C136.464 5.08038 140.072 1.73473 144.56 0.826031C147.403 0.24777 150.496 -0.0358522 153.84 -0.0248377C161.419 0.00820581 169.083 0.0137134 176.832 -0.00831555C177.232 -0.00831555 177.331 0.170668 177.128 0.528639L166.912 18.4795C166.715 18.8265 166.421 18.9999 166.032 18.9999H158.6C158.2 18.9999 158.099 18.8182 158.296 18.4547L160.6 14.2169C160.739 13.9636 160.667 13.8369 160.384 13.8369ZM165.64 5.49342C165.699 5.3998 165.675 5.35299 165.568 5.35299C160.821 5.35299 156.024 5.36675 151.176 5.39429C148.168 5.41907 144.32 6.26994 142.624 9.11994C142.475 9.37328 142.544 9.49994 142.832 9.49994H162.92C163.08 9.49994 163.2 9.4311 163.28 9.29342L165.64 5.49342Z" fill="white"/>
<path d="M229.296 7.02174H248.768C248.817 7.02115 248.865 7.03387 248.908 7.05862C248.951 7.08338 248.987 7.1193 249.012 7.1628C249.037 7.20629 249.05 7.25583 249.051 7.30647C249.052 7.3571 249.04 7.40704 249.016 7.4513L246.512 12.0361C246.488 12.0804 246.453 12.1175 246.411 12.1436C246.369 12.1697 246.321 12.1839 246.272 12.1848H226.032C225.982 12.1842 225.932 12.1977 225.888 12.2239C225.844 12.25 225.809 12.2879 225.784 12.3335L225.096 13.6139C225.072 13.6576 225.06 13.7068 225.061 13.7567C225.061 13.8066 225.074 13.8556 225.098 13.8989C225.122 13.9421 225.157 13.9782 225.199 14.0035C225.24 14.0289 225.288 14.0426 225.336 14.0435H251.544C251.592 14.0443 251.64 14.0581 251.681 14.0834C251.723 14.1088 251.758 14.1448 251.782 14.1881C251.806 14.2313 251.819 14.2803 251.819 14.3303C251.82 14.3802 251.807 14.4294 251.784 14.473L249.232 19.0578C249.208 19.1022 249.173 19.1393 249.131 19.1654C249.089 19.1915 249.041 19.2057 248.992 19.2065H214.792C214.744 19.2057 214.696 19.1919 214.655 19.1666C214.613 19.1412 214.578 19.1052 214.554 19.0619C214.53 19.0187 214.517 18.9697 214.517 18.9197C214.516 18.8698 214.528 18.8206 214.552 18.777L224.896 0.148696C224.92 0.104348 224.955 0.0672622 224.997 0.0411619C225.039 0.0150616 225.087 0.000865228 225.136 0L258.608 0.00825948C258.656 0.00910325 258.704 0.0228665 258.745 0.0482082C258.787 0.0735498 258.822 0.109607 258.846 0.152865C258.87 0.196123 258.883 0.245108 258.883 0.295047C258.884 0.344986 258.871 0.394175 258.848 0.437825L256.344 5.01435C256.32 5.0587 256.285 5.09578 256.243 5.12188C256.201 5.14798 256.153 5.16218 256.104 5.16304L229.792 5.15478C229.735 5.15394 229.68 5.17087 229.633 5.20331C229.586 5.23576 229.549 5.28221 229.528 5.33652L229.032 6.62522C229.015 6.66942 229.009 6.7173 229.014 6.76461C229.019 6.81193 229.035 6.85721 229.061 6.89644C229.087 6.93567 229.122 6.96763 229.163 6.98949C229.204 7.01135 229.25 7.02243 229.296 7.02174Z" fill="white"/>
<path d="M286.984 14.06C286.925 14.0587 286.868 14.077 286.82 14.112C286.773 14.1471 286.737 14.1971 286.719 14.2546C286.701 14.3121 286.702 14.3741 286.721 14.4313C286.74 14.4885 286.776 14.5379 286.824 14.5722L292.856 18.8183C293.229 19.0771 293.189 19.2065 292.736 19.2065H284.16C283.786 19.2063 283.422 19.0849 283.12 18.8596L271.176 9.9213C270.797 9.63493 270.843 9.49174 271.312 9.49174C276.149 9.49174 281.088 9.49725 286.128 9.50826C287.592 9.50826 289.128 9.32652 290.464 8.61609C290.772 8.44848 291.017 8.17916 291.161 7.85113C291.304 7.5231 291.338 7.15525 291.256 6.8063C291.174 6.45734 290.981 6.14739 290.709 5.92591C290.436 5.70443 290.099 5.58417 289.752 5.58435L270.4 5.57609C270.069 5.57609 269.821 5.72203 269.656 6.01391L262.176 19.0661C262.123 19.1597 262.045 19.2065 261.944 19.2065L254.728 19.1983C254.712 19.1995 254.695 19.196 254.681 19.1881C254.666 19.1802 254.654 19.1683 254.646 19.1537C254.637 19.1391 254.633 19.1224 254.634 19.1054C254.634 19.0885 254.639 19.072 254.648 19.0578L264.96 0.437826C265.12 0.15145 265.36 0.00826087 265.68 0.00826087C272.763 -0.00275362 280.259 -0.00275362 288.168 0.00826087C291.84 0.0165217 299.648 0.925218 299.88 5.73304C300.208 12.5978 291.888 14.1922 286.984 14.06Z" fill="white"/>
<path d="M206.472 5.37791C200.947 5.34487 196.053 5.35864 191.792 5.41922C188.248 5.46053 186.656 9.40096 185.408 12.1023C185.312 12.3089 185.268 12.5373 185.281 12.7662C185.294 12.995 185.362 13.2168 185.481 13.4108C185.599 13.6047 185.763 13.7645 185.957 13.8752C186.152 13.9859 186.37 14.0438 186.592 14.0436H202C202.331 14.0436 202.584 13.8976 202.76 13.6057L203.384 12.5649C203.533 12.3115 203.752 12.1849 204.04 12.1849H212.04C212.285 12.1849 212.365 12.3033 212.28 12.5401C210.643 16.9294 207.488 19.1378 202.816 19.1653C196.24 19.2039 188.848 19.2176 180.64 19.2066C178.368 19.2066 173.424 17.3231 175.336 13.9857C176.963 11.1385 178.587 8.19763 180.208 5.16313C182.008 1.7927 185.304 0.206611 188.92 0.206611C197.549 0.201104 205.776 0.203856 213.6 0.214871C214.944 0.214871 216.176 0.619653 217.184 1.58618C217.43 1.82313 217.591 2.13867 217.642 2.48188C217.693 2.8251 217.63 3.17598 217.464 3.47792L215.752 6.61704C215.603 6.88139 215.381 7.01357 215.088 7.01357L207.048 7.03009C206.68 7.03009 206.563 6.85386 206.696 6.50139L206.888 5.99748C207.043 5.58444 206.904 5.37791 206.472 5.37791Z" fill="white"/>
</g>
<defs>
<clipPath id="clip0_57_165">
<rect width="300" height="19" fill="white"/>
</clipPath>
</defs>
</svg>
