<svg width="38" height="38" viewBox="0 0 38 38" fill="none" xmlns="http://www.w3.org/2000/svg">
<path d="M29.1919 33.1504H8.8081C7.75828 33.1504 6.75146 32.7333 6.00913 31.991C5.2668 31.2487 4.84976 30.2418 4.84976 29.192V8.80819C4.84976 7.75837 5.2668 6.75155 6.00913 6.00922C6.75146 5.26689 7.75828 4.84985 8.8081 4.84985H29.1919C30.2417 4.84985 31.2486 5.26689 31.9909 6.00922C32.7332 6.75155 33.1503 7.75837 33.1503 8.80819V29.192C33.1503 30.2418 32.7332 31.2487 31.9909 31.991C31.2486 32.7333 30.2417 33.1504 29.1919 33.1504ZM8.8081 6.43319C8.17821 6.43319 7.57412 6.68341 7.12872 7.12881C6.68332 7.57421 6.4331 8.1783 6.4331 8.80819V29.192C6.4331 29.8219 6.68332 30.426 7.12872 30.8714C7.57412 31.3168 8.17821 31.567 8.8081 31.567H29.1919C29.8218 31.567 30.4259 31.3168 30.8713 30.8714C31.3167 30.426 31.5669 29.8219 31.5669 29.192V8.80819C31.5669 8.1783 31.3167 7.57421 30.8713 7.12881C30.4259 6.68341 29.8218 6.43319 29.1919 6.43319H8.8081Z" fill="white"/>
<path d="M19 26.2737C17.5613 26.2722 16.1554 25.8441 14.96 25.0436C13.7645 24.2432 12.8333 23.1063 12.2839 21.7767C11.7345 20.447 11.5916 18.9843 11.8734 17.5735C12.1551 16.1627 12.8488 14.8671 13.8668 13.8505C14.8847 12.8338 16.1812 12.1418 17.5924 11.8619C19.0036 11.582 20.4661 11.7268 21.795 12.2779C23.1239 12.8291 24.2596 13.7618 25.0585 14.9583C25.8574 16.1548 26.2836 17.5612 26.2833 18.9999C26.2808 20.9299 25.5123 22.78 24.1467 24.1439C22.7811 25.5077 20.93 26.2737 19 26.2737ZM19 13.2999C17.8749 13.3015 16.7755 13.6364 15.8406 14.2625C14.9058 14.8885 14.1774 15.7776 13.7476 16.8174C13.3178 17.8571 13.2057 19.001 13.4256 20.1044C13.6455 21.2078 14.1874 22.2213 14.983 23.0169C15.7786 23.8125 16.7921 24.3544 17.8955 24.5743C18.9989 24.7942 20.1427 24.6821 21.1825 24.2523C22.2223 23.8225 23.1113 23.0941 23.7374 22.1593C24.3635 21.2244 24.6984 20.125 24.7 18.9999C24.7 17.4882 24.0995 16.0383 23.0305 14.9694C21.9615 13.9004 20.5117 13.2999 19 13.2999Z" fill="white"/>
<path d="M27.2333 12.5162C28.1734 12.5162 28.9354 11.7542 28.9354 10.8141C28.9354 9.87411 28.1734 9.11206 27.2333 9.11206C26.2933 9.11206 25.5312 9.87411 25.5312 10.8141C25.5312 11.7542 26.2933 12.5162 27.2333 12.5162Z" fill="white"/>
</svg>
