<svg width="602" height="62" viewBox="0 0 602 62" fill="none" xmlns="http://www.w3.org/2000/svg">
<rect y="0.000366211" width="602" height="62" fill="#222222"/>
<path fill-rule="evenodd" clip-rule="evenodd" d="M522.394 8.00001L541.291 8.00001L590.893 54L571.997 54L522.394 8.00001ZM471.255 8L490.151 8L539.754 54L520.857 54L471.255 8ZM420.115 8L439.012 8L488.614 54L469.718 54L420.115 8ZM368.976 7.99999L387.872 8L437.475 54L418.579 54L368.976 7.99999ZM317.837 7.99999L336.733 7.99999L386.335 54L367.439 54L317.837 7.99999ZM266.697 7.99999L285.593 7.99999L335.196 54L316.3 54L266.697 7.99999ZM215.558 7.99998L234.454 7.99998L284.056 54L265.16 54L215.558 7.99998ZM164.418 7.99998L183.314 7.99998L232.917 54L214.021 54L164.418 7.99998ZM113.279 7.99997L132.175 7.99997L181.778 54L162.881 54L113.279 7.99997ZM62.1393 7.99997L81.0355 7.99997L130.638 54L111.742 54L62.1393 7.99997ZM10.9999 7.99996L29.8961 7.99996L79.4987 54L60.6024 54L10.9999 7.99996Z" fill="#C1C1C1"/>
</svg>
