<svg width="28" height="28" viewBox="0 0 28 28" fill="none" xmlns="http://www.w3.org/2000/svg">
<path d="M18.0833 5.83331C17.0004 5.83331 15.9618 6.26351 15.196 7.02929C14.4302 7.79506 14 8.83367 14 9.91664C14 10.9996 14.4302 12.0382 15.196 12.804C15.9618 13.5698 17.0004 14 18.0833 14C19.1663 14 20.2049 13.5698 20.9707 12.804C21.7365 12.0382 22.1667 10.9996 22.1667 9.91664C22.1667 8.83367 21.7365 7.79506 20.9707 7.02929C20.2049 6.26351 19.1663 5.83331 18.0833 5.83331ZM11.6667 9.91664C11.6668 8.9111 11.9033 7.91966 12.357 7.02229C12.8107 6.12493 13.4689 5.34675 14.2786 4.75052C15.0883 4.15429 16.0268 3.75671 17.0184 3.58983C18.01 3.42296 19.027 3.49146 19.9872 3.78982C20.9475 4.08818 21.8242 4.60804 22.5466 5.30747C23.2691 6.00691 23.817 6.86634 24.1463 7.81645C24.4755 8.76656 24.5769 9.78075 24.4421 10.7772C24.3074 11.7737 23.9404 12.7246 23.3707 13.5531L25.6669 15.8502C26.1223 16.3058 26.1223 17.0444 25.6667 17.4999V17.4999C25.2112 17.9555 24.4725 17.9555 24.0169 17.4999L21.721 15.204C20.7575 15.867 19.6312 16.2541 18.4637 16.3234C17.2962 16.3928 16.1319 16.1417 15.0967 15.5973C14.0616 15.0529 13.1949 14.236 12.5904 13.2348C11.9858 12.2336 11.6664 11.0862 11.6667 9.91664ZM3.5 4.66664H9.33333V6.99997H3.5V4.66664ZM3.5 12.8333H9.33333V15.1666H3.5V12.8333ZM24.5 21V23.3333H3.5V21H24.5Z" fill="white"/>
</svg>
