<svg width="56" height="32" viewBox="0 0 56 32" fill="none" xmlns="http://www.w3.org/2000/svg">
<path d="M4.56904 0H18.6276L14.0586 16L18.6276 32H4.56904L0 16L4.56904 0Z" fill="#646464"/>
<path fill-rule="evenodd" clip-rule="evenodd" d="M32.6862 16L37.2552 0H23.1967L18.6276 16L23.1967 32H37.2552L32.6862 16ZM36.6382 31.5429L32.1997 16L36.6382 0.457143H23.5526L19.1141 16L23.5526 31.5429H36.6382Z" fill="#646464"/>
<path d="M41.4845 1.6L41.0929 2.97143H55.1515L55.5431 1.6H41.4845Z" fill="#646464"/>
<path d="M40.8318 3.88571L40.4402 5.25714H54.4987L54.8904 3.88571H40.8318Z" fill="#646464"/>
<path d="M40.1791 6.17143L39.7874 7.54286H53.846L54.2377 6.17143H40.1791Z" fill="#646464"/>
<path d="M39.5264 8.45714L39.1347 9.82857H53.1933L53.5849 8.45714H39.5264Z" fill="#646464"/>
<path d="M38.8736 10.7429L38.482 12.1143H52.5406L52.9322 10.7429H38.8736Z" fill="#646464"/>
<path d="M38.2209 13.0286L37.8293 14.4H51.8879L52.2795 13.0286H38.2209Z" fill="#646464"/>
<path d="M37.3724 16L37.5682 16.6857H51.6268L51.431 16L51.6268 15.3143H37.5682L37.3724 16Z" fill="#646464"/>
<path d="M37.8293 17.6L38.2209 18.9714H52.2795L51.8879 17.6H37.8293Z" fill="#646464"/>
<path d="M38.482 19.8857L38.8736 21.2571H52.9322L52.5406 19.8857H38.482Z" fill="#646464"/>
<path d="M39.1347 22.1714L39.5264 23.5429H53.5849L53.1933 22.1714H39.1347Z" fill="#646464"/>
<path d="M39.7874 24.4571L40.1791 25.8286H54.2377L53.846 24.4571H39.7874Z" fill="#646464"/>
<path d="M40.4402 26.7429L40.8318 28.1143H54.8904L54.4987 26.7429H40.4402Z" fill="#646464"/>
<path d="M41.0929 29.0286L41.4845 30.4H55.5431L55.1515 29.0286H41.0929Z" fill="#646464"/>
<path d="M56 32L55.8042 31.3143H41.7456L41.9414 32H56Z" fill="#646464"/>
<path d="M41.7456 0.685714H55.8042L56 0H41.9414L41.7456 0.685714Z" fill="#646464"/>
</svg>
