<svg width="45" height="148" viewBox="0 0 45 148" fill="none" xmlns="http://www.w3.org/2000/svg">
<path d="M22.1923 70.3682L39.3639 87.5145L44.4099 82.4685L22.1923 60.251L2.86102e-06 82.4685L5.04604 87.5145L22.1923 70.3682Z" fill="#EC0000"/>
<path d="M22.1923 100.318L39.3639 117.464L44.4099 112.418L22.1923 90.2007L3.8147e-06 112.418L5.04604 117.464L22.1923 100.318Z" fill="#EC0000"/>
<path d="M22.1923 130.619L39.3639 147.79L44.4099 142.719L22.1923 120.527L5.24521e-06 142.719L5.04604 147.79L22.1923 130.619Z" fill="#EC0000"/>
<path d="M22.1923 10.1172L39.3639 27.2636L44.4099 22.2175L22.1923 0L0 22.2175L5.04603 27.2636L22.1923 10.1172Z" fill="#EC0000"/>
<path d="M22.1923 40.0668L39.3639 57.2132L44.4099 52.1672L22.1923 29.9497L5.24521e-06 52.1672L5.04604 57.2132L22.1923 40.0668Z" fill="#EC0000"/>
</svg>
