<svg width="270" height="155" viewBox="0 0 270 155" fill="none" xmlns="http://www.w3.org/2000/svg">
<path d="M13.1955 154.286V127.895M26.391 141.09H0H26.391Z" stroke="black" stroke-miterlimit="10"/>
<path d="M13.1955 89.3233V62.9323M26.391 76.1278H0H26.391Z" stroke="black" stroke-miterlimit="10"/>
<path d="M13.1955 26.391V0M26.391 13.1955H0H26.391Z" stroke="black" stroke-miterlimit="10"/>
<path d="M13.1955 154.286V127.895M26.391 141.09H0H26.391Z" stroke="black" stroke-width="2" stroke-miterlimit="10"/>
<path d="M13.1955 89.3233V62.9323M26.391 76.1278H0H26.391Z" stroke="black" stroke-width="2" stroke-miterlimit="10"/>
<path d="M13.1955 26.391V0M26.391 13.1955H0H26.391Z" stroke="white" stroke-width="2" stroke-miterlimit="10"/>
<path d="M74.0977 154.286V127.895M87.2932 141.09H60.9023H87.2932Z" stroke="black" stroke-miterlimit="10"/>
<path d="M74.0977 89.3233V62.9323M87.2932 76.1278H60.9023H87.2932Z" stroke="black" stroke-miterlimit="10"/>
<path d="M74.0977 26.391V0M87.2932 13.1955H60.9023H87.2932Z" stroke="black" stroke-miterlimit="10"/>
<path d="M74.0977 154.286V127.895M87.2932 141.09H60.9023H87.2932Z" stroke="black" stroke-width="2" stroke-miterlimit="10"/>
<path d="M74.0977 89.3233V62.9323M87.2932 76.1278H60.9023H87.2932Z" stroke="black" stroke-width="2" stroke-miterlimit="10"/>
<path d="M74.0977 26.391V0M87.2932 13.1955H60.9023H87.2932Z" stroke="black" stroke-width="2" stroke-miterlimit="10"/>
<path d="M135 89.3233V62.9323M148.195 76.1278H121.805H148.195Z" stroke="black" stroke-miterlimit="10"/>
<path d="M135 26.391V0M148.195 13.1955H121.805H148.195Z" stroke="black" stroke-miterlimit="10"/>
<path d="M135 89.3233V62.9323M148.195 76.1278H121.805H148.195Z" stroke="black" stroke-width="2" stroke-miterlimit="10"/>
<path d="M135 26.391V0M148.195 13.1955H121.805H148.195Z" stroke="black" stroke-width="2" stroke-miterlimit="10"/>
<path d="M195.902 89.3233V62.9323M209.098 76.1278H182.707H209.098Z" stroke="black" stroke-miterlimit="10"/>
<path d="M195.902 26.391V0M209.098 13.1955H182.707H209.098Z" stroke="black" stroke-miterlimit="10"/>
<path d="M195.902 89.3233V62.9323M209.098 76.1278H182.707H209.098Z" stroke="black" stroke-width="2" stroke-miterlimit="10"/>
<path d="M195.902 26.391V0M209.098 13.1955H182.707H209.098Z" stroke="black" stroke-width="2" stroke-miterlimit="10"/>
<path d="M256.805 89.3233V62.9323M270 76.1278H243.609H270Z" stroke="black" stroke-miterlimit="10"/>
<path d="M256.805 26.391V0M270 13.1955H243.609H270Z" stroke="black" stroke-miterlimit="10"/>
<path d="M256.805 89.3233V62.9323M270 76.1278H243.609H270Z" stroke="white" stroke-width="2" stroke-miterlimit="10"/>
<path d="M256.805 26.391V0M270 13.1955H243.609H270Z" stroke="black" stroke-width="2" stroke-miterlimit="10"/>
</svg>
