<svg width="48" height="48" viewBox="0 0 48 48" fill="none" xmlns="http://www.w3.org/2000/svg">
<path d="M43.112 14.3941C42.8841 13.5473 42.4378 12.7753 41.8178 12.1553C41.1978 11.5352 40.4257 11.0889 39.579 10.8611C37.265 9.96707 14.847 9.52907 8.343 10.8861C7.49615 11.114 6.72405 11.5605 6.104 12.1807C5.48396 12.8009 5.03773 13.5732 4.81 14.4201C3.765 19.0031 3.686 28.9111 4.836 33.5971C5.06388 34.4438 5.51018 35.2158 6.13021 35.8358C6.75025 36.4559 7.52227 36.9022 8.369 37.1301C12.952 38.1851 34.74 38.3331 39.605 37.1301C40.4517 36.9022 41.2238 36.4559 41.8438 35.8358C42.4638 35.2158 42.9101 34.4438 43.138 33.5971C44.252 28.6041 44.331 19.3101 43.112 14.3941Z" stroke="white" stroke-linecap="round" stroke-linejoin="round"/>
<path d="M19.4716 31.4951L29.5226 25.7301C30.8626 24.9621 30.8626 23.0291 29.5226 22.2601L19.4716 16.4951" stroke="white" stroke-linecap="round" stroke-linejoin="round"/>
<path d="M25.103 23.4752L20.37 20.7602C20.2787 20.7078 20.1752 20.6802 20.0699 20.6804C19.9646 20.6806 19.8613 20.7085 19.7702 20.7613C19.6791 20.8141 19.6035 20.8899 19.5509 20.9812C19.4984 21.0725 19.4709 21.1759 19.471 21.2812V26.7092C19.471 26.8144 19.4987 26.9178 19.5513 27.0089C19.6039 27.1 19.6795 27.1757 19.7706 27.2284C19.8617 27.2811 19.965 27.3089 20.0702 27.309C20.1754 27.3092 20.2788 27.2817 20.37 27.2292L25.102 24.5162C25.1936 24.4637 25.2698 24.3879 25.3227 24.2965C25.3757 24.2051 25.4035 24.1014 25.4035 23.9957C25.4035 23.8901 25.3757 23.7864 25.3227 23.695C25.2698 23.6036 25.1936 23.5278 25.102 23.4752H25.103Z" stroke="white" stroke-linecap="round" stroke-linejoin="round"/>
</svg>
